<svg width="60" height="60" viewBox="0 0 60 60" fill="none" xmlns="http://www.w3.org/2000/svg">
<path d="M30.0106 14.5935C21.5031 14.5935 14.6156 21.4885 14.6156 29.9885C14.6156 38.496 21.5106 45.3835 30.0106 45.3835C38.5181 45.3835 45.4056 38.4885 45.4056 29.9885C45.4056 21.481 38.5106 14.5935 30.0106 14.5935V14.5935ZM30.0106 39.981C24.4881 39.981 20.0181 35.5085 20.0181 29.9885C20.0181 24.4685 24.4906 19.996 30.0106 19.996C35.5306 19.996 40.0031 24.4685 40.0031 29.9885C40.0056 35.5085 35.5331 39.981 30.0106 39.981V39.981Z" fill="white"/>
<path d="M42.3706 0.188467C36.8506 -0.0690334 23.1781 -0.0565334 17.6531 0.188467C12.7981 0.415967 8.51557 1.58847 5.06307 5.04097C-0.706932 10.811 0.0305682 18.586 0.0305682 29.9885C0.0305682 41.6585 -0.619432 49.2535 5.06307 54.936C10.8556 60.726 18.7431 59.9685 30.0106 59.9685C41.5706 59.9685 45.5606 59.976 49.6481 58.3935C55.2056 56.236 59.4006 51.2685 59.8106 42.346C60.0706 36.8235 60.0556 23.1535 59.8106 17.6285C59.3156 7.09597 53.6631 0.708467 42.3706 0.188467V0.188467ZM51.1081 51.1185C47.3256 54.901 42.0781 54.5635 29.9381 54.5635C17.4381 54.5635 12.4256 54.7485 8.76807 51.081C4.55557 46.8885 5.31807 40.156 5.31807 29.9485C5.31807 16.136 3.90057 6.18847 17.7631 5.47847C20.9481 5.36597 21.8856 5.32847 29.9031 5.32847L30.0156 5.40347C43.3381 5.40347 53.7906 4.00847 54.4181 17.8685C54.5606 21.031 54.5931 21.981 54.5931 29.986C54.5906 42.341 54.8256 47.3835 51.1081 51.1185V51.1185Z" fill="white"/>
<path d="M46.0156 17.5837C48.0024 17.5837 49.6131 15.973 49.6131 13.9862C49.6131 11.9993 48.0024 10.3887 46.0156 10.3887C44.0287 10.3887 42.4181 11.9993 42.4181 13.9862C42.4181 15.973 44.0287 17.5837 46.0156 17.5837Z" fill="white"/>
</svg>
