<svg width="60" height="41" viewBox="0 0 60 41" fill="none" xmlns="http://www.w3.org/2000/svg">
<path d="M57.45 4.11285C55.8225 1.30557 54.0563 0.78921 50.46 0.592846C46.8675 0.356483 37.8337 0.258301 30.0075 0.258301C22.1662 0.258301 13.1287 0.356483 9.54 0.58921C5.95125 0.78921 4.18125 1.30194 2.53875 4.11285C0.8625 6.91648 0 11.7456 0 20.2474C0 20.2547 0 20.2583 0 20.2583C0 20.2656 0 20.2692 0 20.2692V20.2765C0 28.7419 0.8625 33.6074 2.53875 36.3819C4.18125 39.1892 5.9475 39.6983 9.53625 39.9347C13.1287 40.1383 22.1662 40.2583 30.0075 40.2583C37.8337 40.2583 46.8675 40.1383 50.4637 39.9383C54.06 39.7019 55.8263 39.1928 57.4538 36.3856C59.145 33.611 60 28.7456 60 20.2801C60 20.2801 60 20.2692 60 20.2619C60 20.2619 60 20.2547 60 20.251C60 11.7456 59.145 6.91648 57.45 4.11285ZM22.5 31.1674V9.34921L41.25 20.2583L22.5 31.1674Z" fill="white"/>
</svg>
